# xmcd CD database file
#
# Track frame offsets:
#	150
#	12972
#	22885
#	35040
#	50010
#	64592
#	82692
#	97672
#	113425
#	125802
#	146910
#	164350
#	183335
#	205142
#	225660
#	244505
#	265817
#	281740
#	298405
#	309387
#
# Disc length: 4326 seconds
#
# Revision: 1
# Processed by: cddbd v1.5.2PL0 Copyright (c) Steve Scherf et al.
# Submitted via: CDex 1.60beta1-cs1
#
DISCID=1410e414
DTITLE=Various Artist - 歌いつがれる卒業式の歌
DYEAR=2004
DGENRE=Chorus
TTITLE0=仰げば尊し/ひばり児童合唱団
TTITLE1=門出の歌/杉並児童合唱団
TTITLE2=また会う日まで/船橋さざんか少年少女合唱団
TTITLE3=そのままの君で/神代混声合唱団
TTITLE4=Let's search for Tomorrow/市川市立南行徳中学校合唱部
TTITLE5=旅立ちの歌/名古屋少年少女合唱団
TTITLE6=巣立ちの歌/ひばり児童合唱団
TTITLE7=ありがとう・さようなら/北九州少年少女合唱団
TTITLE8=きみにあえて/世田谷区立喜多見中学校
TTITLE9=Forever/タンポポ児童合唱団
TTITLE10=マイバラード/練馬児童合唱団
TTITLE11=Believe/練馬児童合唱団
TTITLE12=最後のチャイム/久原小学校合唱団
TTITLE13=See You/タンポポ児童合唱団
TTITLE14=Farewell/平松混声合唱団
TTITLE15=心の瞳/パーチェ カンターレ
TTITLE16=COSMOS/クロスロード・ツインズ・ハーモニー
TTITLE17=Tomorrow/横須賀芸術劇場合唱団少年少女合唱隊
TTITLE18=ほたるの光/ビクター少年合唱団
TTITLE19=大地讃頌/神代混声合唱団
EXTD=YEAR: 2004
EXTT0=
EXTT1=
EXTT2=
EXTT3=
EXTT4=
EXTT5=
EXTT6=
EXTT7=
EXTT8=
EXTT9=
EXTT10=
EXTT11=
EXTT12=
EXTT13=
EXTT14=
EXTT15=
EXTT16=
EXTT17=
EXTT18=
EXTT19=
PLAYORDER=
